<svg xmlns="http://www.w3.org/2000/svg" version="1.1" xmlns:xlink="http://www.w3.org/1999/xlink" xmlns:svgjs="http://svgjs.dev/svgjs" width="1000" height="353" viewBox="0 0 1000 353"><g transform="matrix(1,0,0,1,-0.6060606060606801,0.15856252585314223)"><svg viewBox="0 0 396 140" data-background-color="#242038" preserveAspectRatio="xMidYMid meet" height="353" width="1000" xmlns="http://www.w3.org/2000/svg" xmlns:xlink="http://www.w3.org/1999/xlink"><g id="tight-bounds" transform="matrix(1,0,0,1,0.24000000000003752,-0.06288598759047659)"><svg viewBox="0 0 395.5199999999999 140.12577197518098" height="140.12577197518098" width="395.5199999999999"><g><svg viewBox="0 0 395.5199999999999 140.12577197518098" height="140.12577197518098" width="395.5199999999999"><g transform="matrix(1,0,0,1,0,104.26048322138159)"><svg viewBox="0 0 395.5199999999999 35.86528875379938" height="35.86528875379938" width="395.5199999999999"><g id="textblocktransform"><svg viewBox="0 0 395.5199999999999 35.86528875379938" height="35.86528875379938" width="395.5199999999999" id="textblock"><g><svg viewBox="0 0 395.5199999999999 35.86528875379938" height="35.86528875379938" width="395.5199999999999"><g transform="matrix(1,0,0,1,0,0)"><svg width="395.5199999999999" viewBox="5.25 -35.4 394.77 35.8" height="35.86528875379938" data-palette-color="#b19dd0"><path d="M30.35-35L35.35-35 35.35 0 30.35 0 30.35-15.6 10.25-15.6 10.25 0 5.25 0 5.25-35 10.25-35 10.25-19.95 30.35-19.95 30.35-35ZM60.55-35.4Q67.55-35.4 71.6-31.33 75.65-27.25 75.65-19.65L75.65-19.65 75.65 0 70.65 0 70.65-9.65 50.45-9.65 50.45 0 45.55 0 45.55-19.65Q45.55-27.25 49.6-31.33 53.65-35.4 60.55-35.4L60.55-35.4ZM50.45-14L70.65-14 70.65-20.1Q70.65-25.45 67.97-28.2 65.3-30.95 60.55-30.95L60.55-30.95Q55.8-30.95 53.12-28.2 50.45-25.45 50.45-20.1L50.45-20.1 50.45-14ZM110.09-7.2L110.09-17.7 114.9-17.7 114.9 0 110.5 0 110.5-2.35Q106.64 0.4 100.75 0.4L100.75 0.4Q96 0.4 91.92-1.7 87.84-3.8 85.42-7.83 83-11.85 83-17.35L83-17.35Q83-22.55 85.42-26.65 87.84-30.75 92.12-33.08 96.39-35.4 101.75-35.4L101.75-35.4Q105.94-35.4 109.37-34.02 112.8-32.65 115.19-30L115.19-30 112.09-26.9Q107.89-30.95 101.94-30.95L101.94-30.95Q97.94-30.95 94.77-29.2 91.59-27.45 89.8-24.35 88-21.25 88-17.35L88-17.35Q88-13.2 89.82-10.15 91.64-7.1 94.64-5.53 97.64-3.95 101.14-3.95L101.14-3.95Q103.59-3.95 105.92-4.78 108.25-5.6 110.09-7.2L110.09-7.2ZM139.14-35.4Q146.14-35.4 150.19-31.33 154.24-27.25 154.24-19.65L154.24-19.65 154.24 0 149.24 0 149.24-9.65 129.04-9.65 129.04 0 124.14 0 124.14-19.65Q124.14-27.25 128.19-31.33 132.24-35.4 139.14-35.4L139.14-35.4ZM129.04-14L149.24-14 149.24-20.1Q149.24-25.45 146.57-28.2 143.89-30.95 139.14-30.95L139.14-30.95Q134.39-30.95 131.72-28.2 129.04-25.45 129.04-20.1L129.04-20.1 129.04-14ZM193.29 0L187.84 0 180.29-10.75Q178.89-10.65 178.09-10.65L178.09-10.65 169.44-10.65 169.44 0 164.44 0 164.44-35 178.09-35Q184.89-35 188.79-31.75 192.69-28.5 192.69-22.8L192.69-22.8Q192.69-18.75 190.69-15.9 188.69-13.05 184.99-11.75L184.99-11.75 193.29 0ZM177.94-14.9Q182.69-14.9 185.19-16.95 187.69-19 187.69-22.8L187.69-22.8Q187.69-26.6 185.19-28.63 182.69-30.65 177.94-30.65L177.94-30.65 169.44-30.65 169.44-14.9 177.94-14.9ZM228.58-30.95Q223.78-30.95 221.36-28.78 218.93-26.6 218.93-22.45L218.93-22.45 218.93-18.45 234.94-18.45 234.94-14.15 218.93-14.15 218.93 0 213.93 0 213.93-22.5Q213.93-28.55 217.76-31.98 221.58-35.4 228.44-35.4L228.44-35.4Q231.44-35.4 234.03-34.73 236.63-34.05 238.53-32.75L238.53-32.75 236.88-28.6Q233.53-30.95 228.58-30.95L228.58-30.95ZM259.93-30.65L253.18-30.65 253.18-4.35 259.93-4.35 259.93 0 241.43 0 241.43-4.35 248.18-4.35 248.18-30.65 241.43-30.65 241.43-35 259.93-35 259.93-30.65ZM277.53 0.4Q273.58 0.4 269.9-0.83 266.23-2.05 264.13-4L264.13-4 265.98-7.9Q267.98-6.1 271.1-4.98 274.23-3.85 277.53-3.85L277.53-3.85Q281.88-3.85 284.03-5.33 286.18-6.8 286.18-9.25L286.18-9.25Q286.18-11.05 285-12.18 283.83-13.3 282.1-13.9 280.38-14.5 277.23-15.25L277.23-15.25Q273.28-16.2 270.85-17.15 268.43-18.1 266.7-20.08 264.98-22.05 264.98-25.4L264.98-25.4Q264.98-28.2 266.45-30.45 267.93-32.7 270.93-34.05 273.93-35.4 278.38-35.4L278.38-35.4Q281.48-35.4 284.48-34.6 287.48-33.8 289.63-32.3L289.63-32.3 287.98-28.3Q285.78-29.7 283.28-30.43 280.78-31.15 278.38-31.15L278.38-31.15Q274.13-31.15 272-29.6 269.88-28.05 269.88-25.6L269.88-25.6Q269.88-23.8 271.08-22.68 272.28-21.55 274.06-20.93 275.83-20.3 278.88-19.6L278.88-19.6Q282.83-18.65 285.23-17.7 287.63-16.75 289.35-14.8 291.08-12.85 291.08-9.55L291.08-9.55Q291.08-6.8 289.58-4.53 288.08-2.25 285.03-0.93 281.98 0.4 277.53 0.4L277.53 0.4ZM323.48-35L328.48-35 328.48 0 323.48 0 323.48-15.6 303.38-15.6 303.38 0 298.38 0 298.38-35 303.38-35 303.38-19.95 323.48-19.95 323.48-35ZM363.33-7.55L365.03-3.65Q362.78-1.75 359.13-0.68 355.48 0.4 351.18 0.4L351.18 0.4Q346.38 0.4 343.03-0.88 339.68-2.15 337.98-4.4 336.28-6.65 336.28-9.6L336.28-9.6Q336.28-12.6 338-14.78 339.73-16.95 342.48-17.9L342.48-17.9Q340.28-18.9 339.03-20.93 337.78-22.95 337.78-25.6L337.78-25.6Q337.78-28.35 339.35-30.55 340.93-32.75 344.13-34.08 347.33-35.4 351.93-35.4L351.93-35.4Q355.18-35.4 358.25-34.7 361.33-34 363.58-32.7L363.58-32.7 362.13-28.7Q357.63-31.1 352.13-31.1L352.13-31.1Q347.58-31.1 345.18-29.48 342.78-27.85 342.78-25.25L342.78-25.25Q342.78-22.65 344.63-21.25 346.48-19.85 349.93-19.85L349.93-19.85 358.93-19.85 358.93-15.55 349.73-15.55Q345.78-15.55 343.53-14.15 341.28-12.75 341.28-9.95L341.28-9.95Q341.28-7.1 343.83-5.5 346.38-3.9 351.43-3.9L351.43-3.9Q354.93-3.9 358.1-4.88 361.28-5.85 363.33-7.55L363.33-7.55ZM400.02 0L394.57 0 387.02-10.75Q385.62-10.65 384.82-10.65L384.82-10.65 376.17-10.65 376.17 0 371.17 0 371.17-35 384.82-35Q391.62-35 395.52-31.75 399.42-28.5 399.42-22.8L399.42-22.8Q399.42-18.75 397.42-15.9 395.42-13.05 391.72-11.75L391.72-11.75 400.02 0ZM384.67-14.9Q389.42-14.9 391.92-16.95 394.42-19 394.42-22.8L394.42-22.8Q394.42-26.6 391.92-28.63 389.42-30.65 384.67-30.65L384.67-30.65 376.17-30.65 376.17-14.9 384.67-14.9Z" opacity="1" transform="matrix(1,0,0,1,0,0)" fill="#b19dd0" class="undefined-text-0" data-fill-palette-color="primary" id="text-0"></path></svg></g></svg></g></svg></g></svg></g><g transform="matrix(1,0,0,1,154.0966922971511,0)"><svg viewBox="0 0 87.32661540569771 87.32661540569771" height="87.32661540569771" width="87.32661540569771"><g><svg></svg></g><g id="icon-0"><svg viewBox="0 0 87.32661540569771 87.32661540569771" height="87.32661540569771" width="87.32661540569771"><g><path d="M0 43.663c0-24.115 19.549-43.663 43.663-43.663 24.115 0 43.663 19.549 43.664 43.663 0 24.115-19.549 43.663-43.664 43.664-24.115 0-43.663-19.549-43.663-43.664zM43.663 84.092c22.328 0 40.429-18.101 40.429-40.429 0-22.328-18.101-40.429-40.429-40.429-22.328 0-40.429 18.101-40.429 40.429 0 22.328 18.101 40.429 40.429 40.429z" data-fill-palette-color="tertiary" fill="#b19dd0" stroke="transparent"></path></g><g transform="matrix(1,0,0,1,18.395431900400876,26.040257568379314)"><svg viewBox="0 0 50.53575160489596 35.24610026893908" height="35.24610026893908" width="50.53575160489596"><g><svg xmlns="http://www.w3.org/2000/svg" xmlns:xlink="http://www.w3.org/1999/xlink" version="1.1" x="0" y="0" viewBox="1.012 8.212 47.625 33.215999999999994" enable-background="new 0 0 50 50" xml:space="preserve" height="35.24610026893908" width="50.53575160489596" class="icon-g$-0" data-fill-palette-color="accent" id="g$-0"><g fill="#b19dd0" data-fill-palette-color="accent"><polygon fill="#b19dd0" points="19.937,10.508 17.653,8.212 1.012,24.792 17.647,41.428 19.94,39.135 5.603,24.794  " data-fill-palette-color="accent"></polygon><polygon fill="#b19dd0" points="29.714,10.508 44.046,24.794 29.711,39.135 32.004,41.428 48.637,24.792 32.001,8.212  " data-fill-palette-color="accent"></polygon></g></svg></g></svg></g></svg></g></svg></g><g></g></svg></g><defs></defs></svg><rect width="395.5199999999999" height="140.12577197518098" fill="none" stroke="none" visibility="hidden"></rect></g></svg></g></svg>